<svg width="33" height="33" viewBox="0 0 33 33" fill="none" xmlns="http://www.w3.org/2000/svg">
<path d="M24.7171 2.74609L30.2811 8.54609V30.6021H9.49609V30.6741H30.3521V8.61909L24.7171 2.74609Z" fill="#909090"/>
<path d="M24.6488 2.67383H9.42578V30.6018H30.2818V8.54683L24.6488 2.67383Z" fill="#F4F4F4"/>
<path d="M9.27281 4.17383H2.88281V11.0008H22.9828V4.17383H9.27281Z" fill="#7A7B7C"/>
<path d="M23.0887 10.8847H3.01172V4.05273H23.0887V10.8847Z" fill="#DD2025"/>
<path d="M9.67028 5.20752H8.36328V10.0075H9.39128V8.38852L9.61828 8.40152C9.83885 8.39773 10.0574 8.35822 10.2653 8.28452C10.4476 8.22182 10.6153 8.12283 10.7583 7.99352C10.9038 7.87034 11.0185 7.71488 11.0933 7.53952C11.1936 7.24802 11.2294 6.93822 11.1983 6.63152C11.192 6.41243 11.1536 6.19545 11.0843 5.98752C11.0212 5.83743 10.9275 5.70212 10.8092 5.59022C10.6909 5.47831 10.5506 5.39225 10.3973 5.33752C10.2647 5.28952 10.1277 5.25469 9.98828 5.23352C9.88271 5.21724 9.7761 5.20855 9.66928 5.20752M9.48028 7.50152H9.39128V6.02152H9.58428C9.66946 6.01538 9.75493 6.02846 9.83438 6.05979C9.91383 6.09112 9.98522 6.1399 10.0433 6.20252C10.1636 6.36354 10.2279 6.55953 10.2263 6.76052C10.2263 7.00652 10.2263 7.22952 10.0043 7.38652C9.84435 7.47449 9.6623 7.51509 9.48028 7.50152ZM13.1513 5.19452C13.0403 5.19452 12.9323 5.20252 12.8563 5.20552L12.6183 5.21152H11.8383V10.0115H12.7563C13.1071 10.0211 13.4564 9.96168 13.7843 9.83652C14.0482 9.73185 14.2819 9.5631 14.4643 9.34552C14.6416 9.12598 14.7689 8.87036 14.8373 8.59652C14.9158 8.28639 14.9542 7.96744 14.9513 7.64752C14.9707 7.26968 14.9414 6.89091 14.8643 6.52052C14.7911 6.24789 14.6539 5.99662 14.4643 5.78752C14.3155 5.61869 14.1333 5.48249 13.9293 5.38752C13.7541 5.30644 13.5697 5.24668 13.3803 5.20952C13.3049 5.19708 13.2286 5.19139 13.1523 5.19252M12.9703 9.12952H12.8703V6.06552H12.8833C13.0894 6.0418 13.298 6.079 13.4833 6.17252C13.6189 6.28085 13.7295 6.41732 13.8073 6.57252C13.8912 6.73586 13.9396 6.91513 13.9493 7.09852C13.9583 7.31852 13.9493 7.49852 13.9493 7.64752C13.9534 7.81916 13.9423 7.99082 13.9163 8.16052C13.8855 8.33475 13.8285 8.50332 13.7473 8.66052C13.6554 8.80668 13.5312 8.92983 13.3843 9.02052C13.2609 9.10032 13.1148 9.13755 12.9683 9.12652M18.0483 5.21152H15.6183V10.0115H16.6463V8.10752H17.9463V7.21552H16.6463V6.10352H18.0463V5.21152" fill="#464648"/>
<path d="M22.3979 20.9283C22.3979 20.9283 25.5859 20.3504 25.5859 21.4394C25.5859 22.5284 23.6109 22.0853 22.3979 20.9283ZM20.0409 21.0113C19.5344 21.1233 19.0408 21.2871 18.5679 21.5003L18.9679 20.6003C19.3679 19.7003 19.7829 18.4733 19.7829 18.4733C20.2602 19.2767 20.8155 20.031 21.4409 20.7253C20.9693 20.7957 20.5019 20.8918 20.0409 21.0134V21.0113ZM18.7789 14.5114C18.7789 13.5624 19.0859 13.3034 19.3249 13.3034C19.5639 13.3034 19.8329 13.4184 19.8419 14.2424C19.764 15.0709 19.5905 15.8877 19.3249 16.6764C18.961 16.0142 18.7727 15.2699 18.7779 14.5143L18.7789 14.5114ZM14.1299 25.0274C13.1519 24.4424 16.1809 22.6413 16.7299 22.5834C16.7269 22.5844 15.1539 25.6394 14.1299 25.0274ZM26.5169 21.5684C26.5069 21.4684 26.4169 20.3614 24.4469 20.4084C23.6258 20.3951 22.805 20.453 21.9939 20.5814C21.2081 19.7898 20.5315 18.8969 19.9819 17.9264C20.3282 16.9258 20.5377 15.883 20.6049 14.8263C20.5759 13.6263 20.2889 12.9383 19.3689 12.9483C18.4489 12.9583 18.3149 13.7634 18.4359 14.9614C18.5544 15.7664 18.778 16.5524 19.1009 17.2993C19.1009 17.2993 18.6759 18.6223 18.1139 19.9383C17.5519 21.2543 17.1679 21.9444 17.1679 21.9444C16.1906 22.2625 15.2706 22.7351 14.4429 23.3443C13.6189 24.1114 13.2839 24.7003 13.7179 25.2893C14.0919 25.7973 15.4009 25.9123 16.5709 24.3793C17.1925 23.5876 17.7605 22.755 18.2709 21.8874C18.2709 21.8874 20.0549 21.3983 20.6099 21.2643C21.1649 21.1304 21.8359 21.0244 21.8359 21.0244C21.8359 21.0244 23.4649 22.6633 25.0359 22.6053C26.6069 22.5473 26.5309 21.6663 26.5209 21.5703" fill="#DD2025"/>
<path d="M24.5703 2.75098V8.62398H30.2033L24.5703 2.75098Z" fill="#909090"/>
<path d="M24.6484 2.67383V8.54683H30.2814L24.6484 2.67383Z" fill="#F4F4F4"/>
<path d="M9.59216 5.13038H8.28516V9.93038H9.31716V8.31238L9.54516 8.32538C9.76573 8.32158 9.98422 8.28207 10.1922 8.20838C10.3744 8.14565 10.5422 8.04666 10.6852 7.91738C10.8296 7.79387 10.9432 7.63843 11.0172 7.46338C11.1175 7.17187 11.1533 6.86207 11.1222 6.55538C11.1159 6.33628 11.0775 6.1193 11.0082 5.91138C10.945 5.76128 10.8513 5.62598 10.7331 5.51407C10.6148 5.40216 10.4745 5.3161 10.3212 5.26138C10.188 5.21291 10.0503 5.17774 9.91016 5.15638C9.80458 5.14009 9.69797 5.1314 9.59116 5.13038M9.40216 7.42438H9.31316V5.94438H9.50716C9.59234 5.93823 9.67781 5.95131 9.75726 5.98264C9.8367 6.01397 9.90809 6.06275 9.96616 6.12538C10.0865 6.28639 10.1507 6.48238 10.1492 6.68338C10.1492 6.92938 10.1492 7.15238 9.92716 7.30938C9.76722 7.39734 9.58518 7.43695 9.40316 7.42338M13.0732 5.11738C12.9622 5.11738 12.8542 5.12538 12.7782 5.12838L12.5432 5.13438H11.7632V9.93438H12.6812C13.032 9.94399 13.3813 9.88453 13.7092 9.75938C13.9731 9.6547 14.2068 9.48596 14.3892 9.26838C14.5665 9.04883 14.6938 8.79321 14.7622 8.51938C14.8407 8.20924 14.879 7.89029 14.8762 7.57038C14.8956 7.19253 14.8663 6.81376 14.7892 6.44338C14.7159 6.17074 14.5788 5.91947 14.3892 5.71038C14.2403 5.54154 14.0582 5.40535 13.8542 5.31038C13.6789 5.22929 13.4946 5.16953 13.3052 5.13238C13.2298 5.11993 13.1535 5.11424 13.0772 5.11538M12.8952 9.05238H12.7952V5.98838H12.8082C13.0143 5.96466 13.2229 6.00185 13.4082 6.09538C13.5438 6.2037 13.6544 6.34018 13.7322 6.49538C13.8161 6.65871 13.8645 6.83798 13.8742 7.02138C13.8832 7.24138 13.8742 7.42138 13.8742 7.57038C13.8782 7.74201 13.8672 7.91368 13.8412 8.08338C13.8103 8.25761 13.7534 8.42618 13.6722 8.58338C13.5802 8.72953 13.4561 8.85268 13.3092 8.94338C13.1858 9.02317 13.0397 9.0604 12.8932 9.04938M17.9702 5.13438H15.5402V9.93438H16.5682V8.03038H17.8682V7.13838H16.5682V6.02638H17.9682V5.13438" fill="white"/>
</svg>
