<svg width="33" height="33" viewBox="0 0 33 33" fill="none" xmlns="http://www.w3.org/2000/svg">
<g id="Icon">
<path id="Text" d="M3.29297 27.1531V21.2289C3.29297 19.5252 3.604 17.7537 4.22607 15.9145C4.86698 14.0559 5.7341 12.3038 6.82743 10.6581C7.93961 8.99315 9.18374 7.58953 10.5598 6.44727L15.3101 9.61268C14.198 11.3358 13.2649 13.1363 12.5108 15.0142C11.7757 16.8728 11.4175 18.925 11.4364 21.1708V27.1531H3.29297ZM17.6287 27.1531V21.2289C17.6287 19.5252 17.9398 17.7537 18.5618 15.9145C19.2028 14.0559 20.0699 12.3038 21.1632 10.6581C22.2754 8.99315 23.5195 7.58953 24.8956 6.44727L29.6459 9.61268C28.5337 11.3358 27.6006 13.1363 26.8466 15.0142C26.1115 16.8728 25.7533 18.925 25.7721 21.1708V27.1531H17.6287Z" fill="#368DFF"/>
</g>
</svg>
