<svg width="31" height="30" viewBox="0 0 31 30" fill="none" xmlns="http://www.w3.org/2000/svg">
<g clip-path="url(#clip0_273_1183)">
<path d="M27.1418 23.1596C26.3414 22.4461 25.6406 21.628 25.0583 20.7275C24.4227 19.4845 24.0417 18.127 23.9377 16.7348V12.6341C23.9432 10.4474 23.15 8.33386 21.7071 6.6907C20.2641 5.04755 18.2708 3.98785 16.1017 3.71072V2.6399C16.1017 2.346 15.9849 2.06413 15.7771 1.85631C15.5693 1.64849 15.2874 1.53174 14.9935 1.53174C14.6996 1.53174 14.4178 1.64849 14.2099 1.85631C14.0021 2.06413 13.8854 2.346 13.8854 2.6399V3.72732C11.7357 4.02443 9.76645 5.09053 8.34249 6.72817C6.91852 8.36581 6.13629 10.464 6.14066 12.6341V16.7348C6.0367 18.127 5.6557 19.4845 5.02004 20.7275C4.44802 21.6259 3.75847 22.4439 2.96973 23.1596C2.88119 23.2374 2.81022 23.3332 2.76156 23.4405C2.7129 23.5479 2.68765 23.6644 2.6875 23.7822V24.9111C2.6875 25.1313 2.77496 25.3424 2.93063 25.4981C3.0863 25.6538 3.29743 25.7412 3.51759 25.7412H26.594C26.8141 25.7412 27.0253 25.6538 27.181 25.4981C27.3366 25.3424 27.4241 25.1313 27.4241 24.9111V23.7822C27.4239 23.6644 27.3987 23.5479 27.35 23.4405C27.3014 23.3332 27.2304 23.2374 27.1418 23.1596ZM4.41408 24.081C5.1864 23.335 5.8664 22.4989 6.43949 21.5908C7.2402 20.0896 7.70739 18.4332 7.80913 16.7348V12.6341C7.77621 11.6613 7.93939 10.6918 8.28896 9.78335C8.63853 8.8749 9.16733 8.04608 9.84388 7.34625C10.5204 6.64641 11.3309 6.08988 12.227 5.70979C13.1231 5.3297 14.0866 5.13382 15.0599 5.13382C16.0333 5.13382 16.9968 5.3297 17.8929 5.70979C18.789 6.08988 19.5994 6.64641 20.276 7.34625C20.9525 8.04608 21.4814 8.8749 21.8309 9.78335C22.1805 10.6918 22.3437 11.6613 22.3107 12.6341V16.7348C22.4125 18.4332 22.8797 20.0896 23.6804 21.5908C24.2535 22.4989 24.9335 23.335 25.7058 24.081H4.41408Z" fill="#8D8D8D"/>
<path d="M15.0996 28.5132C15.6225 28.5012 16.1243 28.3046 16.5163 27.9582C16.9082 27.6119 17.165 27.1381 17.2413 26.6206H12.875C12.9534 27.1521 13.2222 27.6371 13.6315 27.9852C14.0407 28.3333 14.5624 28.521 15.0996 28.5132Z" fill="#8D8D8D"/>
</g>
<defs>
<clipPath id="clip0_273_1183">
<rect width="29.8831" height="29.8831" fill="white" transform="translate(0.15625 0.0581055)"/>
</clipPath>
</defs>
</svg>
