<svg width="15" height="17" viewBox="0 0 15 17" fill="none" xmlns="http://www.w3.org/2000/svg">
<path id="Vector" d="M5.4875 1.35872V0.525391H9.84583V1.35872H5.4875ZM7.25 10.6212H8.08333V6.26289H7.25V10.6212ZM7.66667 16.7754C6.74556 16.7754 5.88083 16.6015 5.0725 16.2537C4.26472 15.9059 3.55778 15.4293 2.95167 14.8237C2.34611 14.2182 1.86944 13.5112 1.52167 12.7029C1.17389 11.8946 1 11.0298 1 10.1087C1 9.18761 1.17389 8.32289 1.52167 7.51456C1.86944 6.70678 2.34611 5.99984 2.95167 5.39372C3.55722 4.78817 4.26444 4.3115 5.07333 3.96372C5.88056 3.61595 6.745 3.44206 7.66667 3.44206C8.47444 3.44206 9.25556 3.5865 10.01 3.87539C10.7639 4.16317 11.4561 4.57095 12.0867 5.09872L12.9967 4.18872L13.5867 4.77872L12.6767 5.68872C13.2044 6.31928 13.6125 7.0115 13.9008 7.76539C14.1892 8.51983 14.3333 9.30095 14.3333 10.1087C14.3333 11.0298 14.1594 11.8946 13.8117 12.7029C13.4639 13.5107 12.9872 14.2176 12.3817 14.8237C11.7761 15.4293 11.0692 15.9059 10.2608 16.2537C9.4525 16.6015 8.58778 16.7754 7.66667 16.7754ZM7.66667 15.9421C9.27778 15.9421 10.6528 15.3726 11.7917 14.2337C12.9306 13.0948 13.5 11.7198 13.5 10.1087C13.5 8.49761 12.9306 7.12261 11.7917 5.98372C10.6528 4.84484 9.27778 4.27539 7.66667 4.27539C6.05556 4.27539 4.68056 4.84484 3.54167 5.98372C2.40278 7.12261 1.83333 8.49761 1.83333 10.1087C1.83333 11.7198 2.40278 13.0948 3.54167 14.2337C4.68056 15.3726 6.05556 15.9421 7.66667 15.9421Z" fill="#676D82" stroke="#676D82" stroke-width="0.3"/>
</svg>
