<svg width="25" height="25" viewBox="0 0 25 25" fill="none" xmlns="http://www.w3.org/2000/svg">
<path d="M12.6172 16.2508L9.07919 12.7118L9.78619 11.9928L12.1172 14.3238V5.67383H13.1172V14.3238L15.4472 11.9938L16.1552 12.7118L12.6172 16.2508ZM7.23219 19.6738C6.77219 19.6738 6.38819 19.5198 6.08019 19.2118C5.77152 18.9032 5.61719 18.5188 5.61719 18.0588V15.6358H6.61719V18.0588C6.61719 18.2122 6.68119 18.3532 6.80919 18.4818C6.93785 18.6098 7.07885 18.6738 7.23219 18.6738H18.0022C18.1555 18.6738 18.2965 18.6098 18.4252 18.4818C18.5532 18.3532 18.6172 18.2122 18.6172 18.0588V15.6358H19.6172V18.0588C19.6172 18.5188 19.4632 18.9028 19.1552 19.2108C18.8465 19.5195 18.4622 19.6738 18.0022 19.6738H7.23219Z" fill="black"/>
</svg>
