<svg width="10" height="8" viewBox="0 0 10 8" fill="none" xmlns="http://www.w3.org/2000/svg">
<path d="M5 0.5C2.243 0.5 1.74485e-06 2.743 1.74485e-06 5.5C-0.000646463 6.27169 0.179319 7.03282 0.525502 7.7225C0.610502 7.8925 0.783502 8 0.973002 8H9.0265C9.216 8 9.3895 7.8925 9.4745 7.7225C9.82068 7.03282 10.0007 6.27169 10 5.5C10 2.743 7.757 0.5 5 0.5ZM8.705 7H1.295C1.09962 6.52407 0.999396 6.01447 1 5.5C1 3.2945 2.7945 1.5 5 1.5C7.2055 1.5 9 3.2945 9 5.5C9.00061 6.01447 8.90038 6.52407 8.705 7Z" fill="#F30000"/>
<path d="M4.46935 4.96931C4.36299 5.03887 4.27563 5.13383 4.21517 5.24561C4.15471 5.35739 4.12305 5.48248 4.12305 5.60956C4.12305 5.73665 4.15471 5.86173 4.21517 5.97352C4.27563 6.0853 4.36299 6.18026 4.46935 6.24981C4.5534 6.30511 4.64752 6.34329 4.74634 6.36216C4.84516 6.38104 4.94673 6.38023 5.04524 6.3598C5.14375 6.33936 5.23725 6.2997 5.32041 6.24307C5.40357 6.18645 5.47474 6.11398 5.52985 6.02981L7.51085 3.01081C7.51244 3.00817 7.51328 3.00515 7.51328 3.00206C7.51328 2.99898 7.51244 2.99596 7.51085 2.99331C7.5085 2.98971 7.50482 2.98717 7.50062 2.98623C7.49642 2.9853 7.49201 2.98605 7.48835 2.98831L4.46935 4.96931Z" fill="#F30000"/>
</svg>
