<svg width="24" height="24" viewBox="0 0 24 24" fill="none" xmlns="http://www.w3.org/2000/svg">
<path id="Vector" d="M0.429118 0.240565C0.539118 0.150565 0.669123 0.090409 0.809123 0.080409C0.949123 0.060409 1.08903 0.0902332 1.20903 0.150233L22.959 11.0204C23.079 11.0804 23.1791 11.1804 23.2591 11.2904C23.3291 11.4104 23.3591 11.5403 23.3591 11.6703C23.3591 11.8103 23.3291 11.9404 23.2591 12.0604C23.1791 12.1704 23.079 12.2602 22.959 12.3202L1.20903 23.2005C1.08903 23.2605 0.949123 23.2903 0.809123 23.2703C0.669123 23.2503 0.539118 23.2002 0.429118 23.1102C0.319118 23.0202 0.239016 22.9103 0.199016 22.7703C0.149016 22.6403 0.149006 22.5002 0.189006 22.3602L3.0391 11.6703L0.189006 0.990565C0.149006 0.850565 0.149016 0.710409 0.199016 0.580409C0.239016 0.440409 0.319118 0.330565 0.429118 0.240565ZM4.33903 12.4002L1.99906 21.1805L21.0191 11.6703L1.99906 2.17025L4.33903 10.9505H13.939C14.129 10.9505 14.309 11.0305 14.449 11.1605C14.589 11.3005 14.6591 11.4803 14.6591 11.6703C14.6591 11.8703 14.589 12.0503 14.449 12.1903C14.309 12.3203 14.129 12.4002 13.939 12.4002H4.33903Z" fill="#212529"/>
</svg>
