<svg width="18" height="17" viewBox="0 0 18 17" fill="none" xmlns="http://www.w3.org/2000/svg">
<path d="M17.0255 10.6608L15.7127 9.59827C15.7749 9.23775 15.8069 8.86964 15.8069 8.50154C15.8069 8.13343 15.7749 7.76533 15.7127 7.40481L17.0255 6.34224C17.1245 6.26199 17.1954 6.1551 17.2287 6.0358C17.262 5.91649 17.2561 5.79041 17.2119 5.67433L17.1939 5.625C16.8325 4.66873 16.2913 3.78226 15.5965 3.00841L15.5604 2.96857C15.4761 2.87474 15.3638 2.80729 15.2382 2.77512C15.1126 2.74294 14.9797 2.74754 14.8569 2.78831L13.2275 3.33667C12.6262 2.8699 11.9548 2.50179 11.2292 2.24374L10.9146 0.630903C10.8908 0.509546 10.8287 0.397901 10.7363 0.310799C10.6439 0.223697 10.5258 0.165262 10.3975 0.143258L10.3434 0.13377C9.29916 -0.0445901 8.20084 -0.0445901 7.15663 0.13377L7.10251 0.143258C6.97423 0.165262 6.85606 0.223697 6.7637 0.310799C6.67134 0.397901 6.60916 0.509546 6.58542 0.630903L6.26875 2.25133C5.549 2.50944 4.87874 2.87735 4.28455 3.34047L2.64307 2.78831C2.52034 2.74721 2.38731 2.74245 2.26165 2.77465C2.136 2.80684 2.02366 2.87448 1.93958 2.96857L1.9035 3.00841C1.20953 3.78281 0.668442 4.66913 0.306123 5.625L0.288085 5.67433C0.197894 5.91152 0.272051 6.17716 0.474479 6.34224L1.80329 7.4162C1.74116 7.77292 1.7111 8.13723 1.7111 8.49964C1.7111 8.86395 1.74116 9.22826 1.80329 9.58309L0.474479 10.657C0.375461 10.7373 0.304593 10.8442 0.271297 10.9635C0.238002 11.0828 0.243857 11.2089 0.288085 11.325L0.306123 11.3743C0.668891 12.3306 1.20603 13.2129 1.9035 13.9909L1.93958 14.0307C2.02387 14.1245 2.13621 14.192 2.26179 14.2242C2.38737 14.2563 2.5203 14.2517 2.64307 14.211L4.28455 13.6588C4.88181 14.1237 5.54922 14.4918 6.26875 14.748L6.58542 16.3684C6.60916 16.4897 6.67134 16.6014 6.7637 16.6885C6.85606 16.7756 6.97423 16.834 7.10251 16.856L7.15663 16.8655C8.21043 17.0448 9.28957 17.0448 10.3434 16.8655L10.3975 16.856C10.5258 16.834 10.6439 16.7756 10.7363 16.6885C10.8287 16.6014 10.8908 16.4897 10.9146 16.3684L11.2292 14.7555C11.9545 14.4982 12.6297 14.1289 13.2275 13.6626L14.8569 14.211C14.9797 14.2521 15.1127 14.2568 15.2383 14.2246C15.364 14.1924 15.4763 14.1248 15.5604 14.0307L15.5965 13.9909C16.294 13.211 16.8311 12.3306 17.1939 11.3743L17.2119 11.325C17.3021 11.0916 17.2279 10.8259 17.0255 10.6608ZM14.2897 7.62871C14.3398 7.91523 14.3659 8.20933 14.3659 8.50344C14.3659 8.79754 14.3398 9.09165 14.2897 9.37816L14.1574 10.139L15.6546 11.3515C15.4277 11.8465 15.1412 12.3151 14.8008 12.748L12.9409 12.1238L12.3115 12.6133C11.8325 12.9852 11.2994 13.2774 10.7222 13.4824L9.95856 13.7537L9.5998 15.5942C9.03374 15.6549 8.46225 15.6549 7.89619 15.5942L7.53743 13.7499L6.77983 13.4748C6.20862 13.2698 5.6775 12.9776 5.20249 12.6076L4.57316 12.1162L2.70119 12.7461C2.36047 12.3116 2.07587 11.843 1.84739 11.3496L3.36059 10.1258L3.23031 9.36678C3.18221 9.08406 3.15616 8.79185 3.15616 8.50344C3.15616 8.21313 3.18021 7.92282 3.23031 7.64009L3.36059 6.88111L1.84739 5.65726C2.07387 5.16202 2.36047 4.69525 2.70119 4.26073L4.57316 4.89069L5.20249 4.39925C5.6775 4.02924 6.20862 3.73703 6.77983 3.53211L7.53944 3.26077L7.8982 1.41645C8.46139 1.35573 9.03661 1.35573 9.6018 1.41645L9.96056 3.25698L10.7242 3.52831C11.2994 3.73324 11.8345 4.02545 12.3135 4.39735L12.9429 4.88689L14.8028 4.26263C15.1435 4.69714 15.4281 5.16582 15.6566 5.65915L14.1595 6.87163L14.2897 7.62871ZM8.752 4.97417C6.80388 4.97417 5.22454 6.46937 5.22454 8.31369C5.22454 10.158 6.80388 11.6532 8.752 11.6532C10.7001 11.6532 12.2795 10.158 12.2795 8.31369C12.2795 6.46937 10.7001 4.97417 8.752 4.97417ZM10.3394 9.81647C10.1312 10.0141 9.88374 10.1709 9.61132 10.2777C9.3389 10.3845 9.04686 10.4393 8.752 10.4388C8.15274 10.4388 7.58954 10.2168 7.16464 9.81647C6.95585 9.61937 6.79028 9.38513 6.67746 9.12722C6.56464 8.86932 6.50679 8.59284 6.50725 8.31369C6.50725 7.74635 6.74175 7.21317 7.16464 6.81091C7.58954 6.40865 8.15274 6.18854 8.752 6.18854C9.35127 6.18854 9.91447 6.40865 10.3394 6.81091C10.5482 7.00801 10.7137 7.24225 10.8266 7.50016C10.9394 7.75806 10.9972 8.03454 10.9968 8.31369C10.9968 8.88103 10.7623 9.41421 10.3394 9.81647Z" fill="#8D8D8D"/>
</svg>
