<svg width="10" height="11" viewBox="0 0 10 11" fill="none" xmlns="http://www.w3.org/2000/svg">
<path d="M9.705 5.29L5.205 0.79C5.01751 0.60404 4.76407 0.49979 4.5 0.5H1C0.734784 0.5 0.48043 0.605357 0.292893 0.792893C0.105357 0.98043 3.13965e-07 1.23478 3.13965e-07 1.5V5C-0.000104246 5.13196 0.0259084 5.26263 0.0765388 5.38448C0.127169 5.50634 0.201416 5.61697 0.295 5.71L4.795 10.21C4.98249 10.396 5.23593 10.5002 5.5 10.5C5.76479 10.4989 6.01833 10.3928 6.205 10.205L9.705 6.705C9.89279 6.51833 9.99888 6.26479 10 6C10.0001 5.86804 9.97409 5.73737 9.92346 5.61552C9.87283 5.49366 9.79858 5.38303 9.705 5.29ZM5.5 9.5L1 5V1.5H4.5L9 6M2.25 2C2.39834 2 2.54334 2.04399 2.66668 2.1264C2.79001 2.20881 2.88614 2.32594 2.94291 2.46299C2.99968 2.60003 3.01453 2.75083 2.98559 2.89632C2.95665 3.0418 2.88522 3.17544 2.78033 3.28033C2.67544 3.38522 2.5418 3.45665 2.39632 3.48559C2.25083 3.51453 2.10003 3.49968 1.96299 3.44291C1.82594 3.38614 1.70881 3.29001 1.6264 3.16668C1.54399 3.04334 1.5 2.89834 1.5 2.75C1.5 2.55109 1.57902 2.36032 1.71967 2.21967C1.86032 2.07902 2.05109 2 2.25 2Z" fill="#838383"/>
</svg>
