<svg width="51" height="51" viewBox="0 0 51 51" fill="none" xmlns="http://www.w3.org/2000/svg">
<g id="fluent-mdl2:work-item">
<path id="Vector" d="M26.0218 44.9911L28.8202 47.7896H6.36719V8.61151H17.5609C17.5609 7.83903 17.7067 7.11756 17.9982 6.4471C18.2897 5.77664 18.6905 5.17906 19.2006 4.65435C19.7107 4.12965 20.301 3.72883 20.9715 3.4519C21.642 3.17498 22.3707 3.02922 23.1578 3.01465C23.9303 3.01465 24.6517 3.1604 25.3222 3.4519C25.9926 3.74341 26.5902 4.14422 27.1149 4.65435C27.6396 5.16448 28.0405 5.75478 28.3174 6.42524C28.5943 7.09569 28.7401 7.82445 28.7546 8.61151H39.9484V31.0646L37.1499 33.863V11.4099H34.3515V17.0068H11.964V11.4099H9.16562V44.9911H26.0218ZM14.7625 11.4099V14.2084H31.5531V11.4099H25.9562V8.61151C25.9562 8.21798 25.8833 7.8536 25.7376 7.51837C25.5918 7.18315 25.3951 6.89164 25.1473 6.64386C24.8995 6.39609 24.6007 6.19203 24.2509 6.03171C23.9011 5.87138 23.5367 5.7985 23.1578 5.81308C22.7642 5.81308 22.3999 5.88596 22.0646 6.03171C21.7294 6.17746 21.4379 6.37422 21.1901 6.622C20.9423 6.86978 20.7383 7.16857 20.578 7.51837C20.4176 7.86818 20.3448 8.23256 20.3593 8.61151V11.4099H14.7625ZM45.1298 34.7812L32.9523 46.9806L27.0712 41.0777L29.0389 39.11L32.9523 43.0016L43.1622 32.8136L45.1298 34.7812Z" fill="#368DFF"/>
</g>
</svg>
